<?xml version="1.0" encoding="UTF-8"?>
<svg id="Layer_3" data-name="Layer 3" xmlns="http://www.w3.org/2000/svg" viewBox="0 0 471.59 92.22">
  <rect x="41" width="42.09" height="92.22"/>
  <rect x="24.29" width="14.17" height="92.22"/>
  <rect x="9.85" width="11.9" height="92.22"/>
  <rect width="7.31" height="92.22"/>
  <path d="M192.99,52.16c3.78,3.61,5.68,8.39,5.68,14.36,0,8.9-2.76,15.4-8.28,19.5-5.52,4.1-13.98,6.14-25.38,6.14h-78.27V0h75.73c5.88,0,10.89.44,15.03,1.34,4.14.89,7.55,2.34,10.22,4.34,2.67,2,4.61,4.54,5.81,7.61,1.2,3.07,1.8,6.83,1.8,11.29,0,5.79-1.69,10.15-5.08,13.09-3.38,2.94-7.92,4.94-13.62,6.01v1.47c7.12,1.07,12.58,3.41,16.36,7.01ZM126.95,36.86h20.84c2.85,0,4.96-.47,6.34-1.4,1.38-.93,2.07-2.56,2.07-4.87,0-2.49-.62-4.16-1.87-5.01-1.25-.85-3.56-1.27-6.95-1.27h-20.44v12.56ZM126.95,67.85h23.24c3.12,0,5.45-.51,7.01-1.53,1.56-1.02,2.34-2.83,2.34-5.41s-.71-4.18-2.14-5.08c-1.42-.89-3.92-1.33-7.48-1.33h-22.97v13.36Z"/>
  <path d="M200.31,92.16v-58.22h38.32v58.22h-38.32Z"/>
  <path d="M200.31,28.49V0h38.32v28.49h-38.32Z"/>
  <path d="M284.84,51.42h12.56c4.1,0,7.3-.98,9.62-2.94,2.32-1.96,3.47-5.08,3.47-9.35,0-4.01-1.07-6.9-3.2-8.68-2.14-1.78-5.48-2.67-10.02-2.67h-17.1v64.38h-36.89V0h66.67c14.25,0,24.66,2.6,31.25,7.81,6.59,5.21,9.88,13.78,9.88,25.71,0,3.03-.33,6.06-1,9.08-.67,3.03-1.8,5.83-3.41,8.41-1.6,2.58-3.7,4.92-6.28,7.01-2.58,2.09-5.79,3.76-9.62,5.01l24.58,29.12h-46.88l-23.64-40.74Z"/>
  <path d="M415.36,0c9.62,0,17.96.6,25.04,1.8,7.08,1.2,12.91,3.47,17.5,6.81s8.01,8.01,10.28,14.02c2.27,6.01,3.41,13.87,3.41,23.57,0,8.99-1.05,16.45-3.14,22.37-2.09,5.92-5.41,10.62-9.95,14.09-4.54,3.47-10.35,5.92-17.43,7.35-7.08,1.42-15.65,2.14-25.71,2.14h-60.37V0h60.37ZM418.97,65.45c3.12-.45,5.59-1.38,7.41-2.81,1.82-1.42,3.09-3.43,3.81-6.01.71-2.58,1.07-6.06,1.07-10.42,0-4.72-.38-8.41-1.14-11.09-.76-2.67-2.05-4.67-3.87-6.01-1.83-1.34-4.27-2.18-7.35-2.54-3.07-.36-6.97-.53-11.69-.53h-12.02v40.07h12.02c4.72,0,8.64-.22,11.75-.67Z"/>
</svg>